<?xml version="1.0" encoding="UTF-8"?>
<svg data-name="Ebene 1" viewBox="0 0 192.43 166.65" xmlns="http://www.w3.org/2000/svg">
<defs>
<style>.cls-1{fill:#17677c;}.cls-2{fill:#19687d;}.cls-3{fill:#e3e4cc;}</style>
</defs>
<polygon class="cls-1" points="144.32 0 48.11 0 0 83.32 48.11 166.65 144.32 166.65 192.43 83.32"/>
<path class="cls-2" transform="translate(-976.23 -463)" d="M1141,512.84v70.65H1004.92V512.84Zm-64.84,16.29c6-.4,6.36,2.4,5.11,7-2.28,8.37-4.24,16.85-5.84,25.37-.94,5-2.63,8.42-8.63,7.77l-1.73,7.77h27.72l1.29-7.38-6.12-1.72c1-4.56,1.85-8.71,3-12.76a3.76,3.76,0,0,1,2.63-2.29c5.71-.21,11.42-.11,18.42-.11-4.53,6.35.13,16.88-11.73,16.8l-1.47,7.5h27.6c.44-2.65.84-5.07,1.33-8-5.94.78-6.18-2.11-5.17-6.17,2.07-8.26,4.1-16.53,5.87-24.85,1.07-5,1.63-10.13,8.73-9,.59-3,1-5.26,1.55-7.74h-27.42c-.52,2.58-1,4.89-1.52,7.59,6.54-.31,6.3,3.32,5,7.68-.75,2.56-1.27,5.19-1.86,7.65h-19.41a104.26,104.26,0,0,1,2.38-10.77c.5-1.54,2.21-3.77,3.43-3.81,6.2-.23,5-4.6,5.56-8.65-6.77,0-13.28-.06-19.78,0C1075.89,521.15,1078.23,519.9,1076.16,529.13Zm-37.09,25.25c2.75,1.6,5.83,2.32,6.46,4,1.35,3.51-2.36,8.76-6.08,9.93-6.59,2.06-12.16-.54-15.08-7.06-3.84-8.57-1.23-21.48,5.66-28,9.25-8.71,20-5.71,23.53,6.53.23.81.55,1.59,1,2.81l8.29-1.06c-.64-7-1.24-13.6-1.92-21.09-2.72.75-4.84,1.44-7,1.9a6,6,0,0,1-3.13-.11c-19.58-7-38.9,3.58-43.23,23.82-3.91,18.33,8.68,33.6,26.79,32.15,3.82-.3,7.52-2,11.19-3,2.41,3.82,6.12,1.54,9.52,2,1.17-4.89,2.51-9.46,3.32-14.12s2.53-8.15,8.34-7.41l1.56-7.76h-27.7C1040,550.46,1039.44,552.75,1039.07,554.38Z"/>
<path class="cls-3" transform="translate(-976.23 -463)" d="m1141 512.84h-136.08v70.65a17.81 17.81 0 0 1-1-4.08c-0.07-22.47-0.05-44.94-0.05-67.59q68 0 136.08 0c0.37 0.04 0.71 0.68 1.05 1.02z"/>
<path class="cls-3" transform="translate(-976.23 -463)" d="M1076.16,529.13c2.07-9.23-.27-8,9-8.08,6.5-.08,13,0,19.78,0-.53,4.05.64,8.42-5.56,8.65-1.22,0-2.93,2.27-3.43,3.81a104.26,104.26,0,0,0-2.38,10.77h19.41c.59-2.46,1.11-5.09,1.86-7.65,1.29-4.36,1.53-8-5-7.68.54-2.7,1-5,1.52-7.59h27.42c-.5,2.48-1,4.79-1.55,7.74-7.1-1.13-7.66,4-8.73,9-1.77,8.32-3.8,16.59-5.87,24.85-1,4.06-.77,7,5.17,6.17-.49,2.91-.89,5.33-1.33,8h-27.6l1.47-7.5c11.86.08,7.2-10.45,11.73-16.8-7,0-12.71-.1-18.42.11a3.76,3.76,0,0,0-2.63,2.29c-1.16,4.05-2,8.2-3,12.76l6.12,1.72-1.29,7.38h-27.72l1.73-7.77c6,.65,7.69-2.78,8.63-7.77,1.6-8.52,3.56-17,5.84-25.37C1082.52,531.53,1082.21,528.73,1076.16,529.13Z"/>
<path class="cls-3" transform="translate(-976.23 -463)" d="m1039.1 554.38c0.37-1.63 0.89-3.92 1.47-6.45h27.7l-1.56 7.76c-5.81-0.74-7.52 2.65-8.34 7.41s-2.15 9.23-3.32 14.12c-3.4-0.45-7.11 1.83-9.52-2-3.67 1-7.37 2.68-11.19 3-18.11 1.45-30.7-13.82-26.79-32.15 4.33-20.24 23.65-30.86 43.23-23.82a6 6 0 0 0 3.13 0.11c2.17-0.46 4.29-1.15 7-1.9 0.68 7.49 1.28 14 1.92 21.09l-8.29 1.06c-0.41-1.22-0.73-2-1-2.81-3.49-12.24-14.28-15.24-23.53-6.53-6.89 6.49-9.5 19.4-5.66 28 2.92 6.52 8.49 9.12 15.08 7.06 3.72-1.17 7.43-6.42 6.08-9.93-0.58-1.7-3.66-2.4-6.41-4.02z"/>
<rect class="cls-1" x="24.21" y="46.78" width="6.44" height="76.22"/>
<rect class="cls-1" x="28.88" y="43.45" width="140.67" height="10.67"/>
</svg>
